<?xml version="1.0" standalone="no"?>
<svg xmlns="http://www.w3.org/2000/svg" viewBox="0 0 121 70" width="121" height="70"><g fill="#c8102f" color="#c8102f" transform="translate(38.42 0) scale(1.8333334) "><svg width="24.0" height="24.0" x="0.0" y="0.0" viewBox="0 0 24 24"><g><g><path d="M23.5,24h-14C9.224,24,9,23.776,9,23.5v-2C9,21.224,9.224,21,9.5,21h14c0.276,0,0.5,0.224,0.5,0.5v2    C24,23.776,23.776,24,23.5,24z M10,23h13v-1H10V23z"></path></g><g><path d="M22.5,22h-12c-0.276,0-0.5-0.224-0.5-0.5v-15C10,6.224,10.224,6,10.5,6h12C22.776,6,23,6.224,23,6.5v15    C23,21.776,22.776,22,22.5,22z M11,21h11V7H11V21z"></path></g><g><path d="M22.5,7h-12C9.673,7,9,6.327,9,5.5S9.673,4,10.5,4h12C23.327,4,24,4.673,24,5.5S23.327,7,22.5,7z M10.5,5    C10.225,5,10,5.224,10,5.5S10.225,6,10.5,6h12C22.775,6,23,5.776,23,5.5S22.775,5,22.5,5H10.5z"></path></g><g><path d="M22.5,5C22.224,5,22,4.776,22,4.5v-1C22,2.122,20.879,1,19.5,1h-6C12.121,1,11,2.122,11,3.5v1C11,4.776,10.776,5,10.5,5    S10,4.776,10,4.5v-1C10,1.57,11.57,0,13.5,0h6C21.43,0,23,1.57,23,3.5v1C23,4.776,22.776,5,22.5,5z"></path></g><g><path d="M19.5,3h-6C13.224,3,13,2.776,13,2.5S13.224,2,13.5,2h6C19.776,2,20,2.224,20,2.5S19.776,3,19.5,3z"></path></g><g><path d="M20.5,22h-8c-0.276,0-0.5-0.224-0.5-0.5v-12C12,9.224,12.224,9,12.5,9h8C20.776,9,21,9.224,21,9.5v12    C21,21.776,20.776,22,20.5,22z M13,21h7V10h-7V21z"></path></g><g><path d="M16.5,22c-0.276,0-0.5-0.224-0.5-0.5v-12C16,9.224,16.224,9,16.5,9S17,9.224,17,9.5v12C17,21.776,16.776,22,16.5,22z"></path></g><g><path d="M20.5,14h-8c-0.276,0-0.5-0.224-0.5-0.5s0.224-0.5,0.5-0.5h8c0.276,0,0.5,0.224,0.5,0.5S20.776,14,20.5,14z"></path></g><g><path d="M20.5,18h-8c-0.276,0-0.5-0.224-0.5-0.5s0.224-0.5,0.5-0.5h8c0.276,0,0.5,0.224,0.5,0.5S20.776,18,20.5,18z"></path></g></g></svg></g><path fill="#012169" fill-rule="nonzero" d="M0 17.42L0 0.91L5.30 0.91L5.30 13.20L13.78 13.20L13.78 17.42L0 17.42ZM22.22 4.46Q25.70 4.46 27.54 6.10Q29.38 7.73 29.38 11.09L29.38 11.09L29.38 11.90L19.87 11.90Q19.87 13.27 20.48 13.97Q21.10 14.66 22.42 14.66L22.42 14.66Q23.62 14.66 24.18 14.16Q24.74 13.66 24.74 12.82L24.74 12.82L29.38 12.82Q29.38 15.12 27.62 16.42Q25.87 17.71 22.51 17.71L22.51 17.71Q18.98 17.71 17.04 16.07Q15.10 14.42 15.10 11.09L15.10 11.09Q15.10 7.82 16.99 6.14Q18.89 4.46 22.22 4.46L22.22 4.46ZM22.42 7.51Q20.16 7.51 19.90 9.65L19.90 9.65L24.55 9.65Q24.55 8.66 23.99 8.09Q23.42 7.51 22.42 7.51L22.42 7.51ZM37.44 4.75L40.13 4.75L40.13 7.99L37.44 7.99L37.44 12.82Q37.44 13.68 37.73 14.08Q38.02 14.47 38.78 14.47L38.78 14.47L40.13 14.47L40.13 17.28Q39.55 17.47 38.64 17.59Q37.73 17.71 37.06 17.71L37.06 17.71Q34.94 17.71 33.80 16.94Q32.66 16.18 32.66 14.33L32.66 14.33L32.66 7.99L30.89 7.99L30.89 4.75L32.86 4.75L33.89 0.91L37.44 0.91L37.44 4.75ZM46.18 4.44L45.02 7.87L43.39 7.87L42.26 4.44L42.26 0.91L46.18 0.91L46.18 4.44ZM55.03 4.46Q57.58 4.46 59.34 5.46Q61.10 6.46 61.10 8.54L61.10 8.54L56.66 8.54Q56.66 7.85 56.04 7.56L56.04 7.56Q55.61 7.32 54.96 7.32L54.96 7.32Q53.23 7.32 53.23 8.14L53.23 8.14Q53.23 8.59 53.83 8.78Q54.43 8.98 55.80 9.19L55.80 9.19Q57.48 9.43 58.61 9.76Q59.74 10.08 60.58 10.91Q61.42 11.74 61.42 13.22L61.42 13.22Q61.42 15.65 59.60 16.68Q57.79 17.71 54.86 17.71L54.86 17.71Q53.18 17.71 51.70 17.24Q50.21 16.78 49.27 15.79Q48.34 14.81 48.34 13.30L48.34 13.30L52.78 13.30L52.78 13.39Q52.80 14.21 53.46 14.53Q54.12 14.86 54.86 14.86L54.86 14.86Q56.86 14.86 56.86 13.92L56.86 13.92Q56.86 13.44 56.23 13.22Q55.61 13.01 54.19 12.77L54.19 12.77Q52.49 12.48 51.40 12.14Q50.30 11.81 49.49 11.00Q48.67 10.20 48.67 8.76L48.67 8.76Q48.67 6.43 50.44 5.45Q52.20 4.46 55.03 4.46L55.03 4.46ZM77.42 4.75L80.11 4.75L80.11 7.99L77.42 7.99L77.42 12.82Q77.42 13.68 77.71 14.08Q78 14.47 78.77 14.47L78.77 14.47L80.11 14.47L80.11 17.28Q79.54 17.47 78.62 17.59Q77.71 17.71 77.04 17.71L77.04 17.71Q74.93 17.71 73.79 16.94Q72.65 16.18 72.65 14.33L72.65 14.33L72.65 7.99L70.87 7.99L70.87 4.75L72.84 4.75L73.87 0.91L77.42 0.91L77.42 4.75ZM88.58 4.46Q91.49 4.46 93.31 5.44Q95.14 6.41 95.14 8.59L95.14 8.59L95.14 13.54Q95.14 13.94 95.33 14.21Q95.52 14.47 95.90 14.47L95.90 14.47L96.77 14.47L96.77 17.23Q96.70 17.28 96.40 17.39Q96.10 17.50 95.54 17.60Q94.99 17.71 94.27 17.71L94.27 17.71Q92.88 17.71 91.98 17.29Q91.08 16.87 90.74 16.13L90.74 16.13Q89.83 16.85 88.70 17.28Q87.58 17.71 86.06 17.71L86.06 17.71Q81.60 17.71 81.60 14.16L81.60 14.16Q81.60 12.31 82.60 11.34Q83.59 10.37 85.46 10.01Q87.34 9.65 90.36 9.65L90.36 9.65L90.36 9.02Q90.36 8.28 89.84 7.90Q89.33 7.51 88.51 7.51L88.51 7.51Q87.77 7.51 87.23 7.78Q86.69 8.04 86.69 8.62L86.69 8.62L86.69 8.71L81.98 8.71Q81.96 8.59 81.96 8.38L81.96 8.38Q81.96 6.58 83.68 5.52Q85.39 4.46 88.58 4.46L88.58 4.46ZM90.36 11.90Q88.32 11.90 87.35 12.35Q86.38 12.79 86.38 13.54L86.38 13.54Q86.38 14.74 88.01 14.74L88.01 14.74Q88.94 14.74 89.65 14.23Q90.36 13.73 90.36 12.98L90.36 12.98L90.36 11.90ZM103.27 17.42L98.50 17.42L98.50 0.02L103.27 0.02L103.27 17.42ZM111.10 9.60L115.15 4.75L120.72 4.75L116.04 9.86L120.84 17.42L115.42 17.42L112.75 13.08L111.10 14.69L111.10 17.42L106.32 17.42L106.32 0L111.10 0L111.10 9.60Z" transform="translate(0, 52)"></path></svg>